{
  "accessors": [
    {
      "bufferView": 2,
      "componentType": 5126,
      "count": 572,
      "max": [
        21.393699645996094,
        13.299799919128418,
        1.9700000286102295
      ],
      "min": [
        -13.56410026550293,
        -21.658000946044922,
        -2.2287099361419678
      ],
      "type": "VEC3"
    },
    {
      "bufferView": 2,
      "byteOffset": 6864,
      "componentType": 5126,
      "count": 572,
      "max": [
        0.9971946477890015,
        0.9971946477890015,
        1.0
      ],
      "min": [
        -0.9971946477890015,
        -0.9971946477890015,
        -6.215340996187186e-15
      ],
      "type": "VEC3"
    },
    {
      "bufferView": 1,
      "componentType": 5126,
      "count": 572,
      "max": [
        5.39054012298584,
        6.702310085296631
      ],
      "min": [
        -11.472100257873535,
        -5.463749885559082
      ],
      "type": "VEC2"
    },
    {
      "bufferView": 0,
      "componentType": 5125,
      "count": 1104,
      "type": "SCALAR"
    },
    {
      "bufferView": 2,
      "byteOffset": 13728,
      "componentType": 5126,
      "count": 51,
      "max": [
        7.48976993560791,
        -0.921995997428894,
        9.210000038146973
      ],
      "min": [
        0.9311609864234924,
        -7.480609893798828,
        8.300000190734863
      ],
      "type": "VEC3"
    },
    {
      "bufferView": 2,
      "byteOffset": 14340,
      "componentType": 5126,
      "count": 51,
      "max": [
        0.7580521106719971,
        0.7580521106719971,
        1.0
      ],
      "min": [
        -0.7580521106719971,
        -0.7580521106719971,
        0.0
      ],
      "type": "VEC3"
    },
    {
      "bufferView": 1,
      "byteOffset": 4576,
      "componentType": 5126,
      "count": 51,
      "max": [
        18.05820083618164,
        20.144399642944336
      ],
      "min": [
        -18.05820083618164,
        -16.361799240112305
      ],
      "type": "VEC2"
    },
    {
      "bufferView": 0,
      "byteOffset": 4416,
      "componentType": 5125,
      "count": 105,
      "type": "SCALAR"
    },
    {
      "bufferView": 2,
      "byteOffset": 14952,
      "componentType": 5126,
      "count": 40,
      "max": [
        -9.374979972839355,
        -15.023200035095215,
        0.6031209826469421
      ],
      "min": [
        -18.179500579833984,
        -23.827800750732422,
        -0.4022200107574463
      ],
      "type": "VEC3"
    },
    {
      "bufferView": 2,
      "byteOffset": 15432,
      "componentType": 5126,
      "count": 40,
      "max": [
        0.7580521106719971,
        0.7580521106719971,
        1.0
      ],
      "min": [
        -0.7580521106719971,
        -0.7580521106719971,
        -1.8940602995226916e-16
      ],
      "type": "VEC3"
    },
    {
      "bufferView": 1,
      "byteOffset": 4984,
      "componentType": 5126,
      "count": 40,
      "max": [
        28.69059944152832,
        0.6595820188522339
      ],
      "min": [
        -28.69059944152832,
        -26.058399200439453
      ],
      "type": "VEC2"
    },
    {
      "bufferView": 0,
      "byteOffset": 4836,
      "componentType": 5125,
      "count": 72,
      "type": "SCALAR"
    },
    {
      "bufferView": 2,
      "byteOffset": 15912,
      "componentType": 5126,
      "count": 288,
      "max": [
        20.98080062866211,
        12.886799812316895,
        2.9800000190734863
      ],
      "min": [
        -13.151100158691406,
        -21.2450008392334,
        0.7799999713897705
      ],
      "type": "VEC3"
    },
    {
      "bufferView": 2,
      "byteOffset": 19368,
      "componentType": 5126,
      "count": 288,
      "max": [
        0.9971946477890015,
        0.9971946477890015,
        1.0
      ],
      "min": [
        -0.9971946477890015,
        -0.9971946477890015,
        -1.0
      ],
      "type": "VEC3"
    },
    {
      "bufferView": 1,
      "byteOffset": 5304,
      "componentType": 5126,
      "count": 288,
      "max": [
        11.581600189208984,
        5.284949779510498
      ],
      "min": [
        -11.581600189208984,
        -8.712699890136719
      ],
      "type": "VEC2"
    },
    {
      "bufferView": 0,
      "byteOffset": 5124,
      "componentType": 5125,
      "count": 624,
      "type": "SCALAR"
    },
    {
      "bufferView": 2,
      "byteOffset": 22824,
      "componentType": 5126,
      "count": 154,
      "max": [
        20.948999404907227,
        12.85509967803955,
        8.300000190734863
      ],
      "min": [
        -13.119400024414063,
        -21.213300704956055,
        1.0700000524520874
      ],
      "type": "VEC3"
    },
    {
      "bufferView": 2,
      "byteOffset": 24672,
      "componentType": 5126,
      "count": 154,
      "max": [
        0.9971946477890015,
        0.9971946477890015,
        1.0
      ],
      "min": [
        -0.9971946477890015,
        -0.9971946477890015,
        -1.0
      ],
      "type": "VEC3"
    },
    {
      "bufferView": 1,
      "byteOffset": 7608,
      "componentType": 5126,
      "count": 154,
      "max": [
        2.5060300827026367,
        3.1469199657440186
      ],
      "min": [
        -2.5060300827026367,
        -3.658799886703491
      ],
      "type": "VEC2"
    },
    {
      "bufferView": 0,
      "byteOffset": 7620,
      "componentType": 5125,
      "count": 294,
      "type": "SCALAR"
    },
    {
      "bufferView": 2,
      "byteOffset": 26520,
      "componentType": 5126,
      "count": 540,
      "max": [
        4.76455020904541,
        -3.3037800788879395,
        39.229400634765625
      ],
      "min": [
        3.3986198902130127,
        -4.872079849243164,
        36.55419921875
      ],
      "type": "VEC3"
    },
    {
      "bufferView": 2,
      "byteOffset": 33000,
      "componentType": 5126,
      "count": 540,
      "max": [
        0.9992530941963196,
        0.9938198924064636,
        0.9976300001144409
      ],
      "min": [
        -0.9992530941963196,
        -0.9938198924064636,
        -0.9999998807907104
      ],
      "type": "VEC3"
    },
    {
      "bufferView": 1,
      "byteOffset": 8840,
      "componentType": 5126,
      "count": 540,
      "max": [
        3.3459999561309814,
        22.166799545288086
      ],
      "min": [
        -3.3459999561309814,
        -3.2316598892211914
      ],
      "type": "VEC2"
    },
    {
      "bufferView": 0,
      "byteOffset": 8796,
      "componentType": 5125,
      "count": 1038,
      "type": "SCALAR"
    },
    {
      "bufferView": 2,
      "byteOffset": 39480,
      "componentType": 5126,
      "count": 175,
      "max": [
        3.836169958114624,
        -4.01455020904541,
        8.687379837036133
      ],
      "min": [
        0.41605299711227417,
        -7.92756986618042,
        5.307240009307861
      ],
      "type": "VEC3"
    },
    {
      "bufferView": 2,
      "byteOffset": 41580,
      "componentType": 5126,
      "count": 175,
      "max": [
        -0.7548521161079407,
        -0.6494410634040833,
        -0.09178610891103745
      ],
      "min": [
        -0.7548521161079407,
        -0.6494410634040833,
        -0.09178610891103745
      ],
      "type": "VEC3"
    },
    {
      "bufferView": 1,
      "byteOffset": 13160,
      "componentType": 5126,
      "count": 175,
      "max": [
        -1.0358400344848633,
        1.9803500175476074
      ],
      "min": [
        -1.9684100151062012,
        1.0587899684906006
      ],
      "type": "VEC2"
    },
    {
      "bufferView": 0,
      "byteOffset": 12948,
      "componentType": 5125,
      "count": 525,
      "type": "SCALAR"
    },
    {
      "bufferView": 2,
      "byteOffset": 43680,
      "componentType": 5126,
      "count": 840,
      "max": [
        2.165250062942505,
        -5.474020004272461,
        3.27524995803833
      ],
      "min": [
        -1.1244399547576904,
        -9.334919929504395,
        2.6869800090789795
      ],
      "type": "VEC3"
    },
    {
      "bufferView": 2,
      "byteOffset": 53760,
      "componentType": 5126,
      "count": 840,
      "max": [
        -0.38317516446113586,
        -0.3296661376953125,
        0.8628424406051636
      ],
      "min": [
        -0.38317516446113586,
        -0.3296661376953125,
        0.8628424406051636
      ],
      "type": "VEC3"
    },
    {
      "bufferView": 1,
      "byteOffset": 14560,
      "componentType": 5126,
      "count": 840,
      "max": [
        1.9940199851989746,
        -3.020400047302246
      ],
      "min": [
        1.005079984664917,
        -4.00147008895874
      ],
      "type": "VEC2"
    },
    {
      "bufferView": 0,
      "byteOffset": 15048,
      "componentType": 5125,
      "count": 2526,
      "type": "SCALAR"
    },
    {
      "bufferView": 2,
      "byteOffset": 63840,
      "componentType": 5126,
      "count": 410,
      "max": [
        8.241499900817871,
        -0.17026199400424957,
        36.68040084838867
      ],
      "min": [
        -16.400299072265625,
        -22.006200790405273,
        0.5131210088729858
      ],
      "type": "VEC3"
    },
    {
      "bufferView": 2,
      "byteOffset": 68760,
      "componentType": 5126,
      "count": 410,
      "max": [
        0.7580521106719971,
        0.7580521106719971,
        1.0
      ],
      "min": [
        -0.7580521106719971,
        -0.7580521106719971,
        -1.0
      ],
      "type": "VEC3"
    },
    {
      "bufferView": 1,
      "byteOffset": 21280,
      "componentType": 5126,
      "count": 410,
      "max": [
        990.4749755859375,
        1445.68994140625
      ],
      "min": [
        -990.4749755859375,
        -983.5770263671875
      ],
      "type": "VEC2"
    },
    {
      "bufferView": 0,
      "byteOffset": 25152,
      "componentType": 5125,
      "count": 741,
      "type": "SCALAR"
    },
    {
      "bufferView": 2,
      "byteOffset": 73680,
      "componentType": 5126,
      "count": 9216,
      "max": [
        20.909099578857422,
        12.815099716186523,
        3.578239917755127
      ],
      "min": [
        -13.079400062561035,
        -21.17340087890625,
        3.0217599868774414
      ],
      "type": "VEC3"
    },
    {
      "bufferView": 2,
      "byteOffset": 184272,
      "componentType": 5126,
      "count": 9216,
      "max": [
        0.9909273386001587,
        0.9909273386001587,
        0.9937224984169006
      ],
      "min": [
        -0.9909273386001587,
        -0.9909273386001587,
        -0.9937224984169006
      ],
      "type": "VEC3"
    },
    {
      "bufferView": 1,
      "byteOffset": 24560,
      "componentType": 5126,
      "count": 9216,
      "max": [
        15.225700378417969,
        16.544700622558594
      ],
      "min": [
        -15.225700378417969,
        -16.36680030822754
      ],
      "type": "VEC2"
    },
    {
      "bufferView": 0,
      "byteOffset": 28116,
      "componentType": 5125,
      "count": 13824,
      "type": "SCALAR"
    }
  ],
  "asset": {
    "extras": {
      "author": "valord (https://sketchfab.com/valord)",
      "license": "CC-BY-4.0 (http://creativecommons.org/licenses/by/4.0/)",
      "source": "https://sketchfab.com/3d-models/hero-monument-minsk-b61653294a5041718ce10e64dfd9a8a9",
      "title": "Hero- Monument- Minsk"
    },
    "generator": "Sketchfab-12.67.0",
    "version": "2.0"
  },
  "bufferViews": [
    {
      "buffer": 0,
      "byteLength": 83412,
      "name": "floatBufferViews",
      "target": 34963
    },
    {
      "buffer": 0,
      "byteLength": 98288,
      "byteOffset": 83412,
      "byteStride": 8,
      "name": "floatBufferViews",
      "target": 34962
    },
    {
      "buffer": 0,
      "byteLength": 294864,
      "byteOffset": 181700,
      "byteStride": 12,
      "name": "floatBufferViews",
      "target": 34962
    }
  ],
  "buffers": [
    {
      "byteLength": 476564,
      "uri": "scene.bin"
    }
  ],
  "images": [
    {
      "uri": "textures/Concrete_Squares_baseColor.jpeg"
    },
    {
      "uri": "textures/Groundcover_Sand_Smooth_baseColor.jpeg"
    },
    {
      "uri": "textures/Sketchy_Lines_Wavy_B_baseColor.jpeg"
    },
    {
      "uri": "textures/Stone_Granite_BluePearl_baseColor.jpeg"
    },
    {
      "uri": "textures/Stone_Pavers_Flagstone_Gray_baseColor.jpeg"
    },
    {
      "uri": "textures/Stone_Sandstone_Rectangle_baseColor.jpeg"
    },
    {
      "uri": "textures/material_baseColor.jpeg"
    },
    {
      "uri": "textures/material_8_baseColor.jpeg"
    },
    {
      "uri": "textures/material_9_baseColor.png"
    }
  ],
  "materials": [
    {
      "doubleSided": true,
      "name": "Concrete_Squares",
      "pbrMetallicRoughness": {
        "baseColorTexture": {
          "index": 0
        },
        "metallicFactor": 0.0
      }
    },
    {
      "doubleSided": true,
      "name": "FrontColor",
      "pbrMetallicRoughness": {
        "metallicFactor": 0.0
      }
    },
    {
      "doubleSided": true,
      "name": "Groundcover_Sand_Smooth",
      "pbrMetallicRoughness": {
        "baseColorTexture": {
          "index": 1
        },
        "metallicFactor": 0.0
      }
    },
    {
      "doubleSided": true,
      "name": "Sketchy_Lines_Wavy_B",
      "pbrMetallicRoughness": {
        "baseColorTexture": {
          "index": 2
        },
        "metallicFactor": 0.0
      }
    },
    {
      "doubleSided": true,
      "name": "Stone_Granite_BluePearl",
      "pbrMetallicRoughness": {
        "baseColorTexture": {
          "index": 3
        },
        "metallicFactor": 0.0
      }
    },
    {
      "doubleSided": true,
      "name": "Stone_Pavers_Flagstone_Gray",
      "pbrMetallicRoughness": {
        "baseColorTexture": {
          "index": 4
        },
        "metallicFactor": 0.0
      }
    },
    {
      "doubleSided": true,
      "name": "Stone_Sandstone_Rectangle",
      "pbrMetallicRoughness": {
        "baseColorTexture": {
          "index": 5
        },
        "metallicFactor": 0.0
      }
    },
    {
      "doubleSided": true,
      "name": "material",
      "pbrMetallicRoughness": {
        "baseColorTexture": {
          "index": 6
        },
        "metallicFactor": 0.0
      }
    },
    {
      "doubleSided": true,
      "name": "material_8",
      "pbrMetallicRoughness": {
        "baseColorTexture": {
          "index": 7
        },
        "metallicFactor": 0.0
      }
    },
    {
      "doubleSided": true,
      "name": "material_9",
      "pbrMetallicRoughness": {
        "baseColorTexture": {
          "index": 8
        },
        "metallicFactor": 0.0
      }
    }
  ],
  "meshes": [
    {
      "name": "Object_0",
      "primitives": [
        {
          "attributes": {
            "NORMAL": 1,
            "POSITION": 0,
            "TEXCOORD_0": 2
          },
          "indices": 3,
          "material": 0,
          "mode": 4
        }
      ]
    },
    {
      "name": "Object_1",
      "primitives": [
        {
          "attributes": {
            "NORMAL": 5,
            "POSITION": 4,
            "TEXCOORD_0": 6
          },
          "indices": 7,
          "material": 2,
          "mode": 4
        }
      ]
    },
    {
      "name": "Object_2",
      "primitives": [
        {
          "attributes": {
            "NORMAL": 9,
            "POSITION": 8,
            "TEXCOORD_0": 10
          },
          "indices": 11,
          "material": 4,
          "mode": 4
        }
      ]
    },
    {
      "name": "Object_3",
      "primitives": [
        {
          "attributes": {
            "NORMAL": 13,
            "POSITION": 12,
            "TEXCOORD_0": 14
          },
          "indices": 15,
          "material": 5,
          "mode": 4
        }
      ]
    },
    {
      "name": "Object_4",
      "primitives": [
        {
          "attributes": {
            "NORMAL": 17,
            "POSITION": 16,
            "TEXCOORD_0": 18
          },
          "indices": 19,
          "material": 6,
          "mode": 4
        }
      ]
    },
    {
      "name": "Object_5",
      "primitives": [
        {
          "attributes": {
            "NORMAL": 21,
            "POSITION": 20,
            "TEXCOORD_0": 22
          },
          "indices": 23,
          "material": 7,
          "mode": 4
        }
      ]
    },
    {
      "name": "Object_6",
      "primitives": [
        {
          "attributes": {
            "NORMAL": 25,
            "POSITION": 24,
            "TEXCOORD_0": 26
          },
          "indices": 27,
          "material": 8,
          "mode": 4
        }
      ]
    },
    {
      "name": "Object_7",
      "primitives": [
        {
          "attributes": {
            "NORMAL": 29,
            "POSITION": 28,
            "TEXCOORD_0": 30
          },
          "indices": 31,
          "material": 9,
          "mode": 4
        }
      ]
    },
    {
      "name": "Object_8",
      "primitives": [
        {
          "attributes": {
            "NORMAL": 33,
            "POSITION": 32,
            "TEXCOORD_0": 34
          },
          "indices": 35,
          "material": 1,
          "mode": 4
        }
      ]
    },
    {
      "name": "Object_9",
      "primitives": [
        {
          "attributes": {
            "NORMAL": 37,
            "POSITION": 36,
            "TEXCOORD_0": 38
          },
          "indices": 39,
          "material": 3,
          "mode": 4
        }
      ]
    }
  ],
  "nodes": [
    {
      "children": [
        1
      ],
      "matrix": [
        1.0,
        0.0,
        0.0,
        0.0,
        0.0,
        2.220446049250313e-16,
        -1.0,
        0.0,
        0.0,
        1.0,
        2.220446049250313e-16,
        0.0,
        0.0,
        0.0,
        0.0,
        1.0
      ],
      "name": "Sketchfab_model"
    },
    {
      "children": [
        2,
        3,
        4,
        5,
        6,
        7,
        8,
        9,
        10,
        11
      ],
      "name": "Hero-Monument-Minsk.obj.cleaner.materialmerger.gles"
    },
    {
      "mesh": 0,
      "name": "Object_2"
    },
    {
      "mesh": 1,
      "name": "Object_3"
    },
    {
      "mesh": 2,
      "name": "Object_4"
    },
    {
      "mesh": 3,
      "name": "Object_5"
    },
    {
      "mesh": 4,
      "name": "Object_6"
    },
    {
      "mesh": 5,
      "name": "Object_7"
    },
    {
      "mesh": 6,
      "name": "Object_8"
    },
    {
      "mesh": 7,
      "name": "Object_9"
    },
    {
      "mesh": 8,
      "name": "Object_10"
    },
    {
      "mesh": 9,
      "name": "Object_11"
    }
  ],
  "samplers": [
    {
      "magFilter": 9729,
      "minFilter": 9987,
      "wrapS": 10497,
      "wrapT": 10497
    }
  ],
  "scene": 0,
  "scenes": [
    {
      "name": "Sketchfab_Scene",
      "nodes": [
        0
      ]
    }
  ],
  "textures": [
    {
      "sampler": 0,
      "source": 0
    },
    {
      "sampler": 0,
      "source": 1
    },
    {
      "sampler": 0,
      "source": 2
    },
    {
      "sampler": 0,
      "source": 3
    },
    {
      "sampler": 0,
      "source": 4
    },
    {
      "sampler": 0,
      "source": 5
    },
    {
      "sampler": 0,
      "source": 6
    },
    {
      "sampler": 0,
      "source": 7
    },
    {
      "sampler": 0,
      "source": 8
    }
  ]
}
